<svg width="30" height="60" viewBox="0 0 30 60" fill="none" xmlns="http://www.w3.org/2000/svg">
<g clip-path="url(#clip0_516_2)">
<path d="M13.5215 1.7041C14.3464 1.09916 15.4498 1.06158 16.3096 1.59082L16.4785 1.7041L21.4727 5.36719C21.8205 5.62234 22.0957 5.96224 22.2725 6.35352L22.3418 6.52344L29.3066 25.5605C29.4294 25.8963 29.4786 26.2549 29.4512 26.6113L27.5342 51.5371C27.5161 51.7718 27.4645 52.0032 27.3818 52.2236L25.2617 57.8779C24.8958 58.8536 23.963 59.5 22.9209 59.5H7.0791C6.10209 59.5 5.22126 58.9317 4.81348 58.0566L4.73828 57.8779L2.61816 52.2236C2.53552 52.0032 2.48388 51.7718 2.46582 51.5371L0.548828 26.6113C0.528267 26.344 0.550865 26.0755 0.615234 25.8164L0.693359 25.5605L7.6582 6.52344C7.82759 6.0607 8.13 5.65862 8.52734 5.36719L13.5215 1.7041Z" fill="#8A7866" stroke="#B4875A"/>
<path d="M3.18299 22.4528C3.08079 21.3836 3.84134 20.4246 4.9057 20.2806L14.1136 19.0345C14.2828 19.0116 14.4542 19.0104 14.6236 19.0311L25.0654 20.3028C26.1419 20.4339 26.9177 21.399 26.8146 22.4785L26.173 29.1903C26.0749 30.2165 25.2129 31 24.1821 31H5.81794C4.78709 31 3.9251 30.2165 3.82701 29.1903L3.18299 22.4528Z" fill="#FF8316"/>
<rect x="6" y="33" width="18" height="23" rx="1" fill="#F8F892"/>
</g>
<defs>
<clipPath id="clip0_516_2">
<rect width="30" height="60" fill="white"/>
</clipPath>
</defs>
</svg>
