<svg width="30" height="60" viewBox="0 0 30 60" fill="none" xmlns="http://www.w3.org/2000/svg">
<g clip-path="url(#clip0_516_2)">
<path d="M13.5215 1.7041C14.3464 1.09916 15.4498 1.06158 16.3096 1.59082L16.4785 1.7041L21.4727 5.36719C21.8205 5.62234 22.0957 5.96224 22.2725 6.35352L22.3418 6.52344L29.3066 25.5605C29.3988 25.8124 29.45 26.0768 29.458 26.3438L29.4512 26.6113L27.5342 51.5371C27.5206 51.713 27.4885 51.8868 27.4385 52.0557L27.3818 52.2236L25.2617 57.8779C24.8958 58.8536 23.963 59.5 22.9209 59.5H7.0791C6.10209 59.5 5.22125 58.9317 4.81348 58.0566L4.73828 57.8779L2.61816 52.2236C2.55613 52.0582 2.51121 51.8864 2.48535 51.7119L2.46582 51.5371L0.548828 26.6113C0.528267 26.344 0.550865 26.0755 0.615234 25.8164L0.693359 25.5605L7.6582 6.52344C7.80641 6.11854 8.05643 5.76003 8.38281 5.48145L8.52734 5.36719L13.5215 1.7041Z" fill="#8A7866" stroke="#B4875A"/>
<path d="M8.22069 18.7481C8.09865 17.6538 8.88413 16.6667 9.97792 16.5398L14.4127 16.0254C14.5582 16.0085 14.7051 16.0077 14.8508 16.0229L19.9968 16.5601C21.1008 16.6754 21.8998 17.6677 21.7768 18.771L21.615 20.2217C21.5021 21.2342 20.6461 22 19.6273 22H10.3727C9.3539 22 8.49793 21.2342 8.38501 20.2217L8.22069 18.7481Z" fill="#FF8316"/>
<rect x="6" y="46" width="18" height="10" rx="1" fill="#F8F892"/>
</g>
<defs>
<clipPath id="clip0_516_2">
<rect width="30" height="60" fill="white"/>
</clipPath>
</defs>
</svg>
